<mxfile host="app.diagrams.net" modified="2020-04-24T15:29:56.901Z" agent="5.0 (Macintosh)" etag="CrGXQfxKK-WFEXwa5vSu" version="13.0.1" type="github">
  <diagram id="Ae3CV88c5WvhsWiGwa3m" name="Page-1">
    <mxGraphModel dx="946" dy="567" grid="1" gridSize="10" guides="1" tooltips="1" connect="1" arrows="1" fold="1" page="1" pageScale="1" pageWidth="850" pageHeight="1100" math="0" shadow="0">
      <root>
        <mxCell id="0" />
        <mxCell id="1" parent="0" />
        <mxCell id="ROEDN-uirQ6L8P9amswr-1" value="&lt;div&gt;(n1)&lt;br&gt;&lt;/div&gt;&lt;div&gt;NFD&lt;/div&gt;" style="ellipse;whiteSpace=wrap;html=1;fillColor=#d5e8d4;strokeColor=#82b366;" parent="1" vertex="1">
          <mxGeometry x="275" y="260" width="75" height="50" as="geometry" />
        </mxCell>
        <mxCell id="ROEDN-uirQ6L8P9amswr-2" value="(n2)&lt;br&gt;NFD" style="ellipse;whiteSpace=wrap;html=1;fillColor=#d5e8d4;strokeColor=#82b366;" parent="1" vertex="1">
          <mxGeometry x="400" y="261.5" width="75" height="50" as="geometry" />
        </mxCell>
        <mxCell id="ROEDN-uirQ6L8P9amswr-3" value="&lt;div&gt;(n3)&lt;br&gt;&lt;/div&gt;&lt;div&gt;NFD&lt;/div&gt;" style="ellipse;whiteSpace=wrap;html=1;fillColor=#d5e8d4;strokeColor=#82b366;" parent="1" vertex="1">
          <mxGeometry x="490" y="190" width="75" height="50" as="geometry" />
        </mxCell>
        <mxCell id="ROEDN-uirQ6L8P9amswr-4" value="(n4)&lt;br&gt;&lt;div&gt;NFD&lt;/div&gt;" style="ellipse;whiteSpace=wrap;html=1;fillColor=#d5e8d4;strokeColor=#82b366;" parent="1" vertex="1">
          <mxGeometry x="504" y="331.5" width="75" height="50" as="geometry" />
        </mxCell>
        <mxCell id="ROEDN-uirQ6L8P9amswr-6" value="&lt;div&gt;(d1)&lt;br&gt;&lt;/div&gt;&lt;div&gt;SD daemon&lt;/div&gt;" style="rounded=1;whiteSpace=wrap;html=1;dashed=1;fillColor=#fff2cc;strokeColor=#d6b656;" parent="1" vertex="1">
          <mxGeometry x="100" y="160" width="80" height="40" as="geometry" />
        </mxCell>
        <mxCell id="ROEDN-uirQ6L8P9amswr-7" value="(s1)&lt;br&gt;&lt;div&gt;sync&lt;/div&gt;" style="rounded=1;whiteSpace=wrap;html=1;fillColor=#dae8fc;strokeColor=#6c8ebf;" parent="1" vertex="1">
          <mxGeometry x="273" y="161" width="80" height="40" as="geometry" />
        </mxCell>
        <mxCell id="ROEDN-uirQ6L8P9amswr-8" value="" style="endArrow=classic;startArrow=classic;html=1;entryX=0.5;entryY=1;entryDx=0;entryDy=0;" parent="1" source="ROEDN-uirQ6L8P9amswr-1" target="ROEDN-uirQ6L8P9amswr-7" edge="1">
          <mxGeometry width="50" height="50" relative="1" as="geometry">
            <mxPoint x="210" y="270" as="sourcePoint" />
            <mxPoint x="260" y="220" as="targetPoint" />
          </mxGeometry>
        </mxCell>
        <mxCell id="ROEDN-uirQ6L8P9amswr-24" value="&lt;div&gt;publish/fetch &lt;br&gt;&lt;/div&gt;&lt;div&gt;sync data&lt;br&gt;&lt;/div&gt;" style="edgeLabel;html=1;align=center;verticalAlign=middle;resizable=0;points=[];" parent="ROEDN-uirQ6L8P9amswr-8" vertex="1" connectable="0">
          <mxGeometry x="0.1333" y="1" relative="1" as="geometry">
            <mxPoint x="1" y="4" as="offset" />
          </mxGeometry>
        </mxCell>
        <mxCell id="ROEDN-uirQ6L8P9amswr-9" value="" style="endArrow=classic;startArrow=classic;html=1;entryX=1;entryY=1;entryDx=0;entryDy=0;exitX=0;exitY=0.5;exitDx=0;exitDy=0;" parent="1" source="ROEDN-uirQ6L8P9amswr-1" target="ROEDN-uirQ6L8P9amswr-6" edge="1">
          <mxGeometry width="50" height="50" relative="1" as="geometry">
            <mxPoint x="325" y="270" as="sourcePoint" />
            <mxPoint x="325" y="210" as="targetPoint" />
          </mxGeometry>
        </mxCell>
        <mxCell id="ROEDN-uirQ6L8P9amswr-43" value="&lt;div&gt;serve &lt;br&gt;&lt;/div&gt;&lt;div&gt;requests&lt;br&gt;&lt;/div&gt;" style="edgeLabel;html=1;align=center;verticalAlign=middle;resizable=0;points=[];" parent="ROEDN-uirQ6L8P9amswr-9" vertex="1" connectable="0">
          <mxGeometry x="0.2129" y="2" relative="1" as="geometry">
            <mxPoint as="offset" />
          </mxGeometry>
        </mxCell>
        <mxCell id="ROEDN-uirQ6L8P9amswr-10" value="" style="endArrow=classic;startArrow=classic;html=1;entryX=1;entryY=0.5;entryDx=0;entryDy=0;exitX=0;exitY=0.5;exitDx=0;exitDy=0;" parent="1" source="ROEDN-uirQ6L8P9amswr-7" target="ROEDN-uirQ6L8P9amswr-6" edge="1">
          <mxGeometry width="50" height="50" relative="1" as="geometry">
            <mxPoint x="280" y="300" as="sourcePoint" />
            <mxPoint x="150" y="210" as="targetPoint" />
          </mxGeometry>
        </mxCell>
        <mxCell id="ROEDN-uirQ6L8P9amswr-28" value="&lt;div&gt;publish &lt;br&gt;&lt;/div&gt;&lt;div&gt;service&lt;br&gt;&lt;/div&gt;" style="edgeLabel;html=1;align=center;verticalAlign=middle;resizable=0;points=[];" parent="ROEDN-uirQ6L8P9amswr-10" vertex="1" connectable="0">
          <mxGeometry x="0.1789" relative="1" as="geometry">
            <mxPoint x="11" as="offset" />
          </mxGeometry>
        </mxCell>
        <mxCell id="ROEDN-uirQ6L8P9amswr-11" value="" style="endArrow=classic;startArrow=classic;html=1;entryX=0;entryY=0.5;entryDx=0;entryDy=0;exitX=1;exitY=0.5;exitDx=0;exitDy=0;" parent="1" source="ROEDN-uirQ6L8P9amswr-1" target="ROEDN-uirQ6L8P9amswr-2" edge="1">
          <mxGeometry width="50" height="50" relative="1" as="geometry">
            <mxPoint x="325" y="270" as="sourcePoint" />
            <mxPoint x="325" y="210" as="targetPoint" />
          </mxGeometry>
        </mxCell>
        <mxCell id="ROEDN-uirQ6L8P9amswr-12" value="" style="endArrow=classic;startArrow=classic;html=1;entryX=0.156;entryY=0.967;entryDx=0;entryDy=0;exitX=1;exitY=0;exitDx=0;exitDy=0;entryPerimeter=0;" parent="1" source="ROEDN-uirQ6L8P9amswr-2" target="ROEDN-uirQ6L8P9amswr-3" edge="1">
          <mxGeometry width="50" height="50" relative="1" as="geometry">
            <mxPoint x="250" y="301.5" as="sourcePoint" />
            <mxPoint x="410" y="301.5" as="targetPoint" />
          </mxGeometry>
        </mxCell>
        <mxCell id="ROEDN-uirQ6L8P9amswr-13" value="" style="endArrow=classic;startArrow=classic;html=1;entryX=0;entryY=0;entryDx=0;entryDy=0;exitX=1;exitY=1;exitDx=0;exitDy=0;" parent="1" source="ROEDN-uirQ6L8P9amswr-2" target="ROEDN-uirQ6L8P9amswr-4" edge="1">
          <mxGeometry width="50" height="50" relative="1" as="geometry">
            <mxPoint x="486.81980515339455" y="280.28679656440363" as="sourcePoint" />
            <mxPoint x="554.04" y="209.51999999999998" as="targetPoint" />
          </mxGeometry>
        </mxCell>
        <mxCell id="ROEDN-uirQ6L8P9amswr-14" value="&lt;div&gt;(d2)&lt;br&gt;&lt;/div&gt;&lt;div&gt;SD daemon&lt;/div&gt;" style="rounded=1;whiteSpace=wrap;html=1;dashed=1;fillColor=#fff2cc;strokeColor=#d6b656;" parent="1" vertex="1">
          <mxGeometry x="487.5" y="121" width="80" height="40" as="geometry" />
        </mxCell>
        <mxCell id="ROEDN-uirQ6L8P9amswr-15" value="&lt;div&gt;(s2)&lt;br&gt;&lt;/div&gt;&lt;div&gt;sync&lt;/div&gt;" style="rounded=1;whiteSpace=wrap;html=1;dashed=1;fillColor=#dae8fc;strokeColor=#6c8ebf;" parent="1" vertex="1">
          <mxGeometry x="502.5" y="439.5" width="78" height="39" as="geometry" />
        </mxCell>
        <mxCell id="ROEDN-uirQ6L8P9amswr-16" value="" style="endArrow=classic;startArrow=classic;html=1;entryX=0.5;entryY=1;entryDx=0;entryDy=0;exitX=0.5;exitY=0;exitDx=0;exitDy=0;" parent="1" source="ROEDN-uirQ6L8P9amswr-3" target="ROEDN-uirQ6L8P9amswr-14" edge="1">
          <mxGeometry width="50" height="50" relative="1" as="geometry">
            <mxPoint x="238.5" y="271.5" as="sourcePoint" />
            <mxPoint x="238.5" y="211.5" as="targetPoint" />
          </mxGeometry>
        </mxCell>
        <mxCell id="ROEDN-uirQ6L8P9amswr-17" value="" style="endArrow=classic;startArrow=classic;html=1;entryX=0.5;entryY=1;entryDx=0;entryDy=0;exitX=0.5;exitY=0;exitDx=0;exitDy=0;" parent="1" source="ROEDN-uirQ6L8P9amswr-15" target="ROEDN-uirQ6L8P9amswr-4" edge="1">
          <mxGeometry width="50" height="50" relative="1" as="geometry">
            <mxPoint x="450.81980515339455" y="270.2867965644035" as="sourcePoint" />
            <mxPoint x="518.04" y="229.51999999999998" as="targetPoint" />
          </mxGeometry>
        </mxCell>
        <mxCell id="ROEDN-uirQ6L8P9amswr-25" value="Producer" style="rounded=0;whiteSpace=wrap;html=1;dashed=1;strokeWidth=3;fillColor=#f5f5f5;strokeColor=#666666;fontColor=#333333;fontStyle=1" parent="1" vertex="1">
          <mxGeometry x="100" y="320" width="80" height="40" as="geometry" />
        </mxCell>
        <mxCell id="ROEDN-uirQ6L8P9amswr-26" value="" style="endArrow=classic;startArrow=none;html=1;entryX=0.5;entryY=1;entryDx=0;entryDy=0;exitX=0.5;exitY=0;exitDx=0;exitDy=0;startFill=0;endFill=1;" parent="1" source="ROEDN-uirQ6L8P9amswr-25" target="ROEDN-uirQ6L8P9amswr-6" edge="1">
          <mxGeometry width="50" height="50" relative="1" as="geometry">
            <mxPoint x="285" y="190" as="sourcePoint" />
            <mxPoint x="190" y="190" as="targetPoint" />
          </mxGeometry>
        </mxCell>
        <mxCell id="ROEDN-uirQ6L8P9amswr-27" value="&lt;div&gt;advertise/update &lt;br&gt;&lt;/div&gt;&lt;div&gt;service&lt;br&gt;&lt;/div&gt;" style="edgeLabel;html=1;align=center;verticalAlign=middle;resizable=0;points=[];" parent="ROEDN-uirQ6L8P9amswr-26" vertex="1" connectable="0">
          <mxGeometry relative="1" as="geometry">
            <mxPoint as="offset" />
          </mxGeometry>
        </mxCell>
        <mxCell id="ROEDN-uirQ6L8P9amswr-34" style="edgeStyle=orthogonalEdgeStyle;rounded=0;orthogonalLoop=1;jettySize=auto;html=1;exitX=0.5;exitY=1;exitDx=0;exitDy=0;startArrow=none;startFill=0;endArrow=classic;endFill=1;" parent="1" edge="1">
          <mxGeometry relative="1" as="geometry">
            <mxPoint x="723" y="371.5" as="sourcePoint" />
            <mxPoint x="723" y="439.5" as="targetPoint" />
          </mxGeometry>
        </mxCell>
        <mxCell id="ROEDN-uirQ6L8P9amswr-36" value="&lt;div&gt;request &lt;br&gt;&lt;/div&gt;&lt;div&gt;service&lt;/div&gt;&lt;div&gt;(1)&lt;br&gt;&lt;/div&gt;" style="edgeLabel;html=1;align=center;verticalAlign=middle;resizable=0;points=[];" parent="ROEDN-uirQ6L8P9amswr-34" vertex="1" connectable="0">
          <mxGeometry x="-0.1176" relative="1" as="geometry">
            <mxPoint x="-13" as="offset" />
          </mxGeometry>
        </mxCell>
        <mxCell id="ROEDN-uirQ6L8P9amswr-30" value="&lt;div&gt;Consumer&lt;/div&gt;" style="rounded=0;whiteSpace=wrap;html=1;dashed=1;strokeWidth=3;fillColor=#f5f5f5;strokeColor=#666666;fontColor=#333333;fontStyle=1" parent="1" vertex="1">
          <mxGeometry x="690" y="331.5" width="80" height="40" as="geometry" />
        </mxCell>
        <mxCell id="ROEDN-uirQ6L8P9amswr-31" value="&lt;div&gt;(d3)&lt;br&gt;&lt;/div&gt;&lt;div&gt;SD daemon&lt;/div&gt;" style="rounded=1;whiteSpace=wrap;html=1;dashed=1;fillColor=#fff2cc;strokeColor=#d6b656;" parent="1" vertex="1">
          <mxGeometry x="691" y="439.5" width="78" height="39" as="geometry" />
        </mxCell>
        <mxCell id="ROEDN-uirQ6L8P9amswr-32" value="" style="endArrow=classic;startArrow=classic;html=1;entryX=1;entryY=1;entryDx=0;entryDy=0;exitX=0;exitY=0;exitDx=0;exitDy=0;" parent="1" source="ROEDN-uirQ6L8P9amswr-31" target="ROEDN-uirQ6L8P9amswr-4" edge="1">
          <mxGeometry width="50" height="50" relative="1" as="geometry">
            <mxPoint x="551.5" y="442.5" as="sourcePoint" />
            <mxPoint x="551.5" y="391.5" as="targetPoint" />
          </mxGeometry>
        </mxCell>
        <mxCell id="ROEDN-uirQ6L8P9amswr-35" value="&lt;div&gt;fetch &lt;br&gt;&lt;/div&gt;&lt;div&gt;service info&lt;/div&gt;&lt;div&gt;(3)&lt;br&gt;&lt;/div&gt;" style="edgeLabel;html=1;align=center;verticalAlign=middle;resizable=0;points=[];" parent="ROEDN-uirQ6L8P9amswr-32" vertex="1" connectable="0">
          <mxGeometry x="0.1187" y="-2" relative="1" as="geometry">
            <mxPoint as="offset" />
          </mxGeometry>
        </mxCell>
        <mxCell id="ROEDN-uirQ6L8P9amswr-33" value="" style="endArrow=classic;startArrow=classic;html=1;entryX=0;entryY=0.5;entryDx=0;entryDy=0;exitX=1;exitY=0.5;exitDx=0;exitDy=0;" parent="1" source="ROEDN-uirQ6L8P9amswr-15" target="ROEDN-uirQ6L8P9amswr-31" edge="1">
          <mxGeometry width="50" height="50" relative="1" as="geometry">
            <mxPoint x="551.5" y="449.5" as="sourcePoint" />
            <mxPoint x="551.5" y="398.5" as="targetPoint" />
          </mxGeometry>
        </mxCell>
        <mxCell id="ROEDN-uirQ6L8P9amswr-37" value="fetch service &lt;br&gt;&lt;div&gt;names&lt;/div&gt;&lt;div&gt;(2)&lt;br&gt;&lt;/div&gt;" style="edgeLabel;html=1;align=center;verticalAlign=middle;resizable=0;points=[];" parent="ROEDN-uirQ6L8P9amswr-33" vertex="1" connectable="0">
          <mxGeometry x="0.0376" y="-2" relative="1" as="geometry">
            <mxPoint x="-5.5" y="-2" as="offset" />
          </mxGeometry>
        </mxCell>
        <mxCell id="ROEDN-uirQ6L8P9amswr-38" style="edgeStyle=orthogonalEdgeStyle;rounded=0;orthogonalLoop=1;jettySize=auto;html=1;exitX=0.75;exitY=0;exitDx=0;exitDy=0;startArrow=none;startFill=0;endArrow=classic;endFill=1;entryX=0.75;entryY=1;entryDx=0;entryDy=0;" parent="1" source="ROEDN-uirQ6L8P9amswr-31" target="ROEDN-uirQ6L8P9amswr-30" edge="1">
          <mxGeometry relative="1" as="geometry">
            <mxPoint x="733" y="381.5" as="sourcePoint" />
            <mxPoint x="733" y="449.5" as="targetPoint" />
          </mxGeometry>
        </mxCell>
        <mxCell id="ROEDN-uirQ6L8P9amswr-39" value="&lt;div&gt;send &lt;br&gt;&lt;/div&gt;&lt;div&gt;service info&lt;br&gt;&lt;/div&gt;&lt;div&gt;(4)&lt;br&gt;&lt;/div&gt;" style="edgeLabel;html=1;align=center;verticalAlign=middle;resizable=0;points=[];" parent="ROEDN-uirQ6L8P9amswr-38" vertex="1" connectable="0">
          <mxGeometry x="-0.1176" relative="1" as="geometry">
            <mxPoint x="20.5" y="0.5" as="offset" />
          </mxGeometry>
        </mxCell>
        <mxCell id="ROEDN-uirQ6L8P9amswr-42" value="Numbering shows the ordering of &lt;br&gt;the service discovery process" style="text;html=1;align=center;verticalAlign=middle;resizable=0;points=[];autosize=1;" parent="1" vertex="1">
          <mxGeometry x="580.5" y="520" width="190" height="30" as="geometry" />
        </mxCell>
        <mxCell id="27J3_kE1SquX3wN85o0Z-1" value="" style="rounded=0;whiteSpace=wrap;html=1;dashed=1;strokeWidth=3;fillColor=none;gradientColor=none;" vertex="1" parent="1">
          <mxGeometry x="90" y="110" width="720" height="450" as="geometry" />
        </mxCell>
      </root>
    </mxGraphModel>
  </diagram>
</mxfile>
